<?xml version="1.0" encoding="utf-8"?>
<!-- Generator: Adobe Illustrator 25.2.0, SVG Export Plug-In . SVG Version: 6.00 Build 0)  -->
<svg version="1.1" id="Layer_1" xmlns="http://www.w3.org/2000/svg" xmlns:xlink="http://www.w3.org/1999/xlink" x="0px" y="0px"
	 viewBox="0 0 750 750" style="enable-background:new 0 0 750 750;" xml:space="preserve">
<style type="text/css">
	.st0{fill:#282A39;}
	.st1{fill:none;stroke:#888FAA;stroke-width:23.4734;stroke-linecap:round;stroke-linejoin:round;stroke-miterlimit:6.6667;}
</style>
<circle class="st0" cx="375.5" cy="375.5" r="252.26"/>
<g>
	<path class="st1" d="M310.59,245.68h129.82c35.85,0,64.91,29.06,64.91,64.91v129.82c0,35.85-29.06,64.91-64.91,64.91H310.59
		c-35.85,0-64.91-29.06-64.91-64.91V310.59C245.68,274.74,274.74,245.68,310.59,245.68z"/>
	<path class="st1" d="M427.43,367.32c4.21,28.37-15.38,54.77-43.75,58.98c-28.37,4.21-54.77-15.38-58.98-43.75
		c-4.21-28.37,15.38-54.77,43.75-58.98c5.05-0.75,10.18-0.75,15.23,0C406.3,326.93,424.07,344.7,427.43,367.32z"/>
	<line class="st1" x1="446.9" y1="304.1" x2="447.03" y2="304.1"/>
</g>
</svg>
