<?xml version="1.0" encoding="utf-8"?>
<!-- Generator: Adobe Illustrator 25.2.0, SVG Export Plug-In . SVG Version: 6.00 Build 0)  -->
<svg version="1.1" id="Layer_1" xmlns="http://www.w3.org/2000/svg" xmlns:xlink="http://www.w3.org/1999/xlink" x="0px" y="0px"
	 viewBox="0 0 750 750" style="enable-background:new 0 0 750 750;" xml:space="preserve">
<style type="text/css">
	.st0{fill:#282A39;}
	.st1{fill:#333647;}
	.st2{fill:#888FAA;}
	.st3{fill:none;stroke:#888FAA;stroke-width:23.4734;stroke-linecap:round;stroke-linejoin:round;stroke-miterlimit:6.6667;}
	.st4{fill:#282A35;}
</style>
<circle class="st1" cx="375" cy="375" r="252.26"/>
<g>
	<path class="st3" d="M310.09,245.18h129.82c35.85,0,64.91,29.06,64.91,64.91v129.82c0,35.85-29.06,64.91-64.91,64.91H310.09
		c-35.85,0-64.91-29.06-64.91-64.91V310.09C245.18,274.24,274.24,245.18,310.09,245.18z"/>
	<path class="st3" d="M426.93,366.82c4.21,28.37-15.38,54.77-43.75,58.98c-28.37,4.21-54.77-15.38-58.98-43.75
		c-4.21-28.37,15.38-54.77,43.75-58.98c5.05-0.75,10.18-0.75,15.23,0C405.8,326.43,423.57,344.2,426.93,366.82z"/>
	<line class="st3" x1="446.4" y1="303.6" x2="446.53" y2="303.6"/>
</g>
</svg>
