<?xml version="1.0" encoding="utf-8"?>
<!-- Generator: Adobe Illustrator 25.2.0, SVG Export Plug-In . SVG Version: 6.00 Build 0)  -->
<svg version="1.1" id="Layer_1" xmlns="http://www.w3.org/2000/svg" xmlns:xlink="http://www.w3.org/1999/xlink" x="0px" y="0px"
	 viewBox="0 0 750 750" style="enable-background:new 0 0 750 750;" xml:space="preserve">
<style type="text/css">
	.st0{fill:#282A39;}
	.st1{fill:#888FAA;}
</style>
<circle class="st0" cx="375.5" cy="375.5" r="252.26"/>
<g>
	<path class="st1" d="M491.94,268.44c-4.13-3.5-10.61-4-17.32-1.31h-0.01c-7.05,2.83-199.6,85.42-207.44,88.79
		c-1.43,0.5-13.88,5.14-12.59,15.49c1.14,9.33,11.15,13.19,12.37,13.64l48.95,16.76c3.25,10.81,15.22,50.7,17.87,59.22
		c1.65,5.31,4.34,12.29,9.06,13.73c4.14,1.6,8.26,0.14,10.92-1.95l29.93-27.76L432,482.72l1.15,0.69c3.28,1.45,6.42,2.18,9.42,2.18
		c2.32,0,4.54-0.43,6.67-1.3c7.24-2.97,10.13-9.87,10.44-10.65l36.09-187.58C497.96,276.04,494.9,270.94,491.94,268.44z
		 M359.08,408.52l-16.51,44.04l-16.51-55.05l126.6-93.58L359.08,408.52z"/>
</g>
</svg>
