<?xml version="1.0" encoding="utf-8"?>
<!-- Generator: Adobe Illustrator 25.2.0, SVG Export Plug-In . SVG Version: 6.00 Build 0)  -->
<svg version="1.1" id="Layer_1" xmlns="http://www.w3.org/2000/svg" xmlns:xlink="http://www.w3.org/1999/xlink" x="0px" y="0px"
	 viewBox="0 0 750 750" style="enable-background:new 0 0 750 750;" xml:space="preserve">
<style type="text/css">
	.st0{fill:#282A39;}
	.st1{fill:#888FAA;}
</style>
<circle class="st0" cx="375.5" cy="375.5" r="252.26"/>
<path class="st1" d="M476.13,317.66c0.27,2.25,0.41,4.55,0.41,6.89c0,8.07-2.02,22.87-2.02,22.87
	c-8.59,77.1-76.64,136.92-156.04,136.92c-23.71,0-46.18-5.34-66.23-14.89c26.12-1.39,49.47-13.14,66.05-31.24
	c-24.81-0.07-45.95-15.76-54.09-37.72c1.41,0.14,2.86,0.18,4.32,0.18c6.03,0,11.85-0.93,17.3-2.61c-9.5-2.36-18.1-7.07-25.1-13.48
	v-0.02c-10.91-9.96-17.98-24.1-18.71-39.88c7.41,4.73,15.98,7.82,25.19,8.73c1.91,0.2,3.84,0.3,5.82,0.3c2,0,3.96-0.09,5.89-0.3
	c-3-1.52-5.87-3.3-8.55-5.3c-10.78-8.05-18.64-19.73-21.76-33.24c-1-4.23-1.52-8.64-1.52-13.16c0-4.57,0.52-9.03,1.55-13.3
	c0.89-3.87,2.18-7.57,3.82-11.07c1.52,2.98,3.18,5.84,5,8.62c2.23,3.43,4.66,6.73,7.32,9.84c10.66,12.6,24.49,22.4,40.24,28.22
	c5.09,1.89,10.41,3.36,15.89,4.37c1.27,0.23,2.57,0.43,3.87,0.61c0.89,0.14,1.77,0.25,2.66,0.36c4.21,0.55,8.5,0.84,12.85,0.84
	c2.27,0,4.52-0.07,6.78-0.23c4.71-0.34,9.3-1,13.8-1.98c-0.02-0.2-0.05-0.43-0.05-0.64c-0.05-0.93-0.07-1.86-0.07-2.8
	c0-25.85,16.94-47.75,40.33-55.18c1.02-0.32,2.05-0.61,3.09-0.89h0.02c4.62-1.18,9.46-1.82,14.46-1.82c2.77,0,5.5,0.2,8.16,0.57
	c0.64,0.09,1.27,0.2,1.91,0.32c0.61,0.09,1.23,0.23,1.82,0.34c0.61,0.11,1.21,0.25,1.8,0.41c10.3,2.48,19.53,7.73,26.83,14.91
	l0.02,0.02c2.23,0.55,4.52,0.95,6.87,1.23c2.23,0.27,4.5,0.41,6.82,0.41c10.03,0,19.44-2.55,27.65-7
	c-7.68,9.55-18.35,16.62-30.6,19.78c-0.02,0-0.02,0-0.02,0c-0.14,0.05-0.25,0.07-0.39,0.09c-0.82,0.2-1.61,0.39-2.43,0.55
	c0.89,0.18,1.75,0.34,2.64,0.5c0.27,0.02,0.55,0.07,0.82,0.09v0.02c2.66,0.36,5.41,0.57,8.18,0.57c11.1,0,21.46-3.11,30.26-8.55
	C501.87,303.54,490.16,313.2,476.13,317.66z"/>
</svg>
