<?xml version="1.0" encoding="utf-8"?>
<!-- Generator: Adobe Illustrator 25.2.0, SVG Export Plug-In . SVG Version: 6.00 Build 0)  -->
<svg version="1.1" id="Layer_1" xmlns="http://www.w3.org/2000/svg" xmlns:xlink="http://www.w3.org/1999/xlink" x="0px" y="0px"
	 viewBox="0 0 750 750" style="enable-background:new 0 0 750 750;" xml:space="preserve">
<style type="text/css">
	.st0{fill:#282A39;}
	.st1{fill:#888FAA;}
	.st2{fill:#282A35;}
</style>
<circle class="st0" cx="375.5" cy="375.5" r="252.26"/>
<g>
	<g>
		<g>
			<path class="st1" d="M508.03,311.87c-2.91-11.61-11.8-20.78-23.32-24.04c-20.67-5.05-103.36-5.05-103.36-5.05
				s-82.69,0-103.36,5.53c-11.52,3.26-20.41,12.43-23.32,24.04c-3.78,20.98-5.63,42.26-5.53,63.58
				c-0.13,21.48,1.72,42.92,5.53,64.06c3.2,11.24,12.04,19.99,23.32,23.08c20.67,5.53,103.36,5.53,103.36,5.53s82.69,0,103.36-5.53
				c11.52-3.26,20.41-12.43,23.32-24.04c3.75-20.82,5.6-41.94,5.53-63.1C513.7,354.45,511.85,333,508.03,311.87z"/>
		</g>
		<g>
			<polygon class="st2" points="354.31,415.23 423.42,375.93 354.31,336.63 			"/>
		</g>
	</g>
</g>
</svg>
